# xmcd CD database file
#
# Track frame offsets:
#	150
#	17373
#	36864
#	50315
#	66058
#	81412
#	100911
#	120389
#	140696
#	157830
#	178444
#	198151
#
# Disc length: 2872 seconds
#
# Revision: 0
# Processed by: cddbd v1.5.1PL0 Copyright (c) Steve Scherf et al.
# Submitted via: CDex 1.51
#
DISCID=990b360c
DTITLE=Various Artist - After Hours Sax [CD1]
DYEAR=2004
DGENRE=Jazz
TTITLE0=My Heart Will Go On
TTITLE1=Way You Look Tonight
TTITLE2=Where Does My Heart Beat Now
TTITLE3=You are So Beautiful
TTITLE4=Lady in Red
TTITLE5=When I Fall in Love
TTITLE6=I Only Have Eyes For You
TTITLE7=Come Rain or Come Shine
TTITLE8=Suddenly
TTITLE9=Save Your Love
TTITLE10=Endless Love
TTITLE11=Way We Were
EXTD=YEAR: 2004
EXTT0=
EXTT1=
EXTT2=
EXTT3=
EXTT4=
EXTT5=
EXTT6=
EXTT7=
EXTT8=
EXTT9=
EXTT10=
EXTT11=
PLAYORDER=
